<?xml version="1.0" encoding="UTF-8" standalone="no"?>
<!-- Generator: Adobe Illustrator 15.0.0, SVG Export Plug-In . SVG Version: 6.00 Build 0)  -->

<svg
   xmlns:dc="http://purl.org/dc/elements/1.1/"
   xmlns:cc="http://creativecommons.org/ns#"
   xmlns:rdf="http://www.w3.org/1999/02/22-rdf-syntax-ns#"
   xmlns:svg="http://www.w3.org/2000/svg"
   xmlns="http://www.w3.org/2000/svg"
   xmlns:sodipodi="http://sodipodi.sourceforge.net/DTD/sodipodi-0.dtd"
   xmlns:inkscape="http://www.inkscape.org/namespaces/inkscape"
   version="1.1"
   id="图层_1"
   x="0px"
   y="0px"
   width="496.81299"
   height="512"
   viewBox="0 0 496.81299 512"
   enable-background="new 0 0 168 175"
   xml:space="preserve"
   sodipodi:docname="大萌字.svg"
   inkscape:version="0.92.2 (5c3e80d, 2017-08-06)"><metadata
     id="metadata6013"><rdf:RDF><cc:Work
         rdf:about=""><dc:format>image/svg+xml</dc:format><dc:type
           rdf:resource="http://purl.org/dc/dcmitype/StillImage" /><dc:title></dc:title></cc:Work></rdf:RDF></metadata><defs
     id="defs6011" /><sodipodi:namedview
     pagecolor="#ffffff"
     bordercolor="#666666"
     borderopacity="1"
     objecttolerance="10"
     gridtolerance="10"
     guidetolerance="10"
     inkscape:pageopacity="0"
     inkscape:pageshadow="2"
     inkscape:window-width="1920"
     inkscape:window-height="1051"
     id="namedview6009"
     showgrid="false"
     inkscape:zoom="1"
     inkscape:cx="170.8828"
     inkscape:cy="121.19365"
     inkscape:window-x="-9"
     inkscape:window-y="-9"
     inkscape:window-maximized="1"
     inkscape:current-layer="图层_1" /><g
     id="g6018"
     transform="matrix(2.96874,0,0,2.96874,-1.039059,-3.8593689)"><path
       id="path6003"
       d="m 132.7,8 c -4.434,-1.867 -9.101,-3.1 -14,-3.7 -1.5,-0.2 -2.9,0.117 -4.2,0.95 -1.3,0.8 -2.2,1.917 -2.7,3.35 -1.733,4.833 -3.3,9.65 -4.7,14.45 -14.533,-0.5 -29.149,-0.866 -43.85,-1.1 -0.5,-4.367 -1,-8.817 -1.5,-13.35 C 61.55,6.933 60.85,5.55 59.65,4.45 58.383,3.35 56.933,2.8 55.3,2.8 50,2.8 44.933,3.283 40.1,4.25 c -1.567,0.3 -2.85,1.083 -3.85,2.35 -1,1.267 -1.467,2.7 -1.4,4.3 0.167,3.567 0.383,7.133 0.65,10.7 -9,-0.1 -17.983,-0.15 -26.95,-0.15 -1.7,0 -3.167,0.583 -4.4,1.75 -1.267,1.167 -1.95,2.6 -2.05,4.3 -0.167,2.066 -0.25,4.017 -0.25,5.85 0,2.2 0.233,4.667 0.7,7.4 0.267,1.467 0.983,2.717 2.15,3.75 1.133,1 2.466,1.533 4,1.6 9.633,0.433 19.45,0.816 29.45,1.15 0.667,5.6 1.45,11.167 2.35,16.7 0.233,1.566 0.967,2.866 2.2,3.9 1.233,1.033 2.633,1.55 4.2,1.55 4.8,0 9.583,-0.417 14.35,-1.25 1.633,-0.3 2.967,-1.1 4,-2.4 1,-1.333 1.45,-2.833 1.35,-4.5 -0.333,-4.3 -0.667,-8.667 -1,-13.1 11.667,0.367 23.333,0.667 35,0.9 -0.666,3.333 -1.283,6.617 -1.85,9.85 -0.267,1.434 -0.05,2.8 0.65,4.1 0.666,1.267 1.649,2.217 2.949,2.85 -0.6,0.667 -1.016,1.45 -1.25,2.35 -0.3,1.066 -0.566,2.183 -0.8,3.35 -1.533,-0.366 -3.533,-0.633 -6,-0.8 -0.167,-0.033 -0.333,-0.05 -0.5,-0.05 -2.733,0 -5.399,0.133 -8,0.4 -1.566,0.133 -2.9,0.75 -4,1.85 -1.1,1.1 -1.716,2.433 -1.85,4 -0.667,6.633 -1.267,13.384 -1.8,20.25 -0.133,-4.634 -0.3,-9.784 -0.5,-15.45 -0.066,-1.633 -0.65,-3.033 -1.75,-4.2 -1.1,-1.2 -2.45,-1.883 -4.05,-2.05 -10.6,-1.133 -22.317,-1.833 -35.15,-2.1 -1.667,-0.033 -3.117,0.483 -4.35,1.55 -0.467,0.4 -0.867,0.833 -1.2,1.3 -0.1,-0.033 -0.2,-0.066 -0.3,-0.1 -2.3,-0.733 -5.083,-1.1 -8.35,-1.1 -3.2,0 -5.933,0.367 -8.2,1.1 -1.267,0.367 -2.316,1.067 -3.15,2.1 -0.867,1 -1.35,2.167 -1.45,3.5 C 8.567,93.416 8,104.816 8,115.95 c 0,0.033 0,0.083 0,0.149 0.333,18.667 0.967,31.316 1.9,37.95 0.2,1.333 0.767,2.517 1.7,3.55 0.933,1 2.066,1.634 3.4,1.9 8,1.733 17.5,2.6 28.5,2.6 13.967,0 23.417,-0.6 28.35,-1.8 1.1,-0.267 2.05,-0.767 2.85,-1.5 -0.034,0.833 -0.067,1.684 -0.1,2.55 -0.033,1.301 0.3,2.518 1,3.65 0.7,1.1 1.65,1.934 2.85,2.5 2.4,1.166 5.633,1.75 9.7,1.75 5.033,0 8.316,-0.483 9.85,-1.45 1,-0.5 1.834,-1.216 2.5,-2.149 0.633,-0.967 1.017,-2 1.15,-3.101 0.434,-5.233 0.85,-10.45 1.25,-15.649 4.333,0.5 8.816,0.75 13.449,0.75 1.566,0 2.967,-0.518 4.2,-1.551 1.233,-1.033 1.983,-2.333 2.25,-3.899 0.7,-4.467 1.05,-8.567 1.05,-12.3 0,-1.533 -0.482,-2.9 -1.449,-4.101 -1,-1.233 -2.25,-1.983 -3.75,-2.25 -4.667,-0.933 -9.334,-1.733 -14,-2.399 0,-0.134 0,-0.25 0,-0.351 4.8,0.567 9.85,0.851 15.149,0.851 1.567,0 2.95,-0.5 4.15,-1.5 1.2,-1 1.95,-2.268 2.25,-3.801 0.833,-4.633 1.25,-8.766 1.25,-12.399 0,-1.534 -0.483,-2.9 -1.45,-4.101 -1,-1.199 -2.267,-1.949 -3.8,-2.25 -5.467,-1.1 -10.884,-1.982 -16.25,-2.649 0.1,-2.434 0.2,-4.884 0.3,-7.35 4.5,0.867 11.65,1.533 21.45,2 0.8,19 1.884,38.867 3.25,59.601 -1.767,0.433 -3.384,0.866 -4.851,1.3 -1.399,0.367 -2.55,1.15 -3.449,2.35 -0.9,1.134 -1.351,2.434 -1.351,3.9 0.034,4.967 1.45,9.283 4.25,12.95 0.667,0.866 1.5,1.533 2.5,2 0.967,0.433 2,0.616 3.101,0.55 8.732,-0.6 16.116,-1.983 22.149,-4.15 1.3,-0.5 2.351,-1.3 3.15,-2.399 0.767,-1.134 1.149,-2.384 1.149,-3.75 0,-30.101 -0.766,-60.467 -2.3,-91.1 -0.066,-1.667 -0.7,-3.1 -1.899,-4.3 -1.2,-1.2 -2.617,-1.833 -4.25,-1.9 -8.566,-0.433 -16.484,-0.733 -23.75,-0.9 1.366,-4.667 2.649,-9.417 3.85,-14.25 9.666,0.133 19.434,0.2 29.3,0.2 1.366,0 2.616,-0.4 3.75,-1.2 1.134,-0.8 1.934,-1.833 2.4,-3.1 1,-2.933 1.5,-5.75 1.5,-8.45 v -5.4 c 0,-1.733 -0.601,-3.216 -1.8,-4.45 -1.2,-1.267 -2.667,-1.95 -4.4,-2.05 -8.166,-0.4 -16.517,-0.767 -25.05,-1.1 0.566,-2.867 1.116,-5.833 1.649,-8.9 0.234,-1.466 -0.016,-2.866 -0.75,-4.2 C 135.117,9.517 134.066,8.566 132.7,8 m -81.4,96.55 c -5.533,-1.466 -10.816,-2.466 -15.85,-3 V 97.7 c 4.833,0.733 10.133,1.3 15.9,1.7 -0.033,1.733 -0.05,3.45 -0.05,5.15 M 35.45,129.6 c 3.933,0.566 8.316,0.851 13.15,0.851 0.8,0 1.566,-0.134 2.3,-0.4 -0.033,1.866 -0.066,3.717 -0.1,5.55 -4.8,-0.033 -9.917,-0.1 -15.35,-0.199 V 129.6 Z"
       inkscape:connector-curvature="0"
       style="fill:#ffffff" /><path
       d="M 63.25,21.95 C 62.75,17.583 62.25,13.133 61.75,8.6 61.55,6.933 60.85,5.55 59.65,4.45 58.383,3.35 56.933,2.8 55.3,2.8 50,2.8 44.933,3.283 40.1,4.25 c -1.567,0.3 -2.85,1.083 -3.85,2.35 -1,1.267 -1.467,2.7 -1.4,4.3 0.167,3.567 0.383,7.133 0.65,10.7 -9,-0.1 -17.983,-0.15 -26.95,-0.15 -1.7,0 -3.167,0.583 -4.4,1.75 -1.267,1.167 -1.95,2.6 -2.05,4.3 -0.167,2.066 -0.25,4.017 -0.25,5.85 0,2.2 0.233,4.667 0.7,7.4 0.267,1.467 0.983,2.717 2.15,3.75 1.133,1 2.466,1.533 4,1.6 9.633,0.433 19.45,0.816 29.45,1.15 0.667,5.6 1.45,11.167 2.35,16.7 0.233,1.566 0.967,2.866 2.2,3.9 1.233,1.033 2.633,1.55 4.2,1.55 4.8,0 9.583,-0.417 14.35,-1.25 1.633,-0.3 2.967,-1.1 4,-2.4 1,-1.333 1.45,-2.833 1.35,-4.5 -0.333,-4.3 -0.667,-8.667 -1,-13.1 11.667,0.367 23.333,0.667 35,0.9 -0.666,3.333 -1.283,6.617 -1.85,9.85 -0.267,1.434 -0.05,2.8 0.65,4.1 0.666,1.267 1.649,2.217 2.949,2.85 -0.6,0.667 -1.016,1.45 -1.25,2.35 -0.3,1.066 -0.566,2.183 -0.8,3.35 -1.533,-0.366 -3.533,-0.633 -6,-0.8 -0.167,-0.033 -0.333,-0.05 -0.5,-0.05 -2.733,0 -5.399,0.133 -8,0.4 -1.566,0.133 -2.9,0.75 -4,1.85 -1.1,1.1 -1.716,2.433 -1.85,4 -0.667,6.633 -1.267,13.384 -1.8,20.25 -0.133,-4.634 -0.3,-9.784 -0.5,-15.45 -0.066,-1.633 -0.65,-3.033 -1.75,-4.2 -1.1,-1.2 -2.45,-1.883 -4.05,-2.05 -10.6,-1.133 -22.317,-1.833 -35.15,-2.1 -1.667,-0.033 -3.117,0.483 -4.35,1.55 -0.467,0.4 -0.867,0.833 -1.2,1.3 -0.1,-0.033 -0.2,-0.066 -0.3,-0.1 -2.3,-0.733 -5.083,-1.1 -8.35,-1.1 -3.2,0 -5.933,0.367 -8.2,1.1 -1.267,0.367 -2.316,1.067 -3.15,2.1 -0.867,1 -1.35,2.167 -1.45,3.5 C 8.567,93.416 8,104.816 8,115.95 c 0,0.033 0,0.083 0,0.149 0.333,18.667 0.967,31.316 1.9,37.95 0.2,1.333 0.767,2.517 1.7,3.55 0.933,1 2.066,1.634 3.4,1.9 8,1.733 17.5,2.6 28.5,2.6 13.967,0 23.417,-0.6 28.35,-1.8 1.1,-0.267 2.05,-0.767 2.85,-1.5 -0.034,0.833 -0.067,1.684 -0.1,2.55 -0.033,1.301 0.3,2.518 1,3.65 0.7,1.1 1.65,1.934 2.85,2.5 2.4,1.166 5.633,1.75 9.7,1.75 5.033,0 8.316,-0.483 9.85,-1.45 1,-0.5 1.834,-1.216 2.5,-2.149 0.633,-0.967 1.017,-2 1.15,-3.101 0.434,-5.233 0.85,-10.45 1.25,-15.649 4.333,0.5 8.816,0.75 13.449,0.75 1.566,0 2.967,-0.518 4.2,-1.551 1.233,-1.033 1.983,-2.333 2.25,-3.899 0.7,-4.467 1.05,-8.567 1.05,-12.3 0,-1.533 -0.482,-2.9 -1.449,-4.101 -1,-1.233 -2.25,-1.983 -3.75,-2.25 -4.667,-0.933 -9.334,-1.733 -14,-2.399 0,-0.134 0,-0.25 0,-0.351 4.8,0.567 9.85,0.851 15.149,0.851 1.567,0 2.95,-0.5 4.15,-1.5 1.2,-1 1.95,-2.268 2.25,-3.801 0.833,-4.633 1.25,-8.766 1.25,-12.399 0,-1.534 -0.483,-2.9 -1.45,-4.101 -1,-1.199 -2.267,-1.949 -3.8,-2.25 -5.467,-1.1 -10.884,-1.982 -16.25,-2.649 0.1,-2.434 0.2,-4.884 0.3,-7.35 4.5,0.867 11.65,1.533 21.45,2 0.8,19 1.884,38.867 3.25,59.601 -1.767,0.433 -3.384,0.866 -4.851,1.3 -1.399,0.367 -2.55,1.15 -3.449,2.35 -0.9,1.134 -1.351,2.434 -1.351,3.9 0.034,4.967 1.45,9.283 4.25,12.95 0.667,0.866 1.5,1.533 2.5,2 0.967,0.433 2,0.616 3.101,0.55 8.732,-0.6 16.116,-1.983 22.149,-4.15 1.3,-0.5 2.351,-1.3 3.15,-2.399 0.767,-1.134 1.149,-2.384 1.149,-3.75 0,-30.101 -0.766,-60.467 -2.3,-91.1 -0.066,-1.667 -0.7,-3.1 -1.899,-4.3 -1.2,-1.2 -2.617,-1.833 -4.25,-1.9 -8.566,-0.433 -16.484,-0.733 -23.75,-0.9 1.366,-4.667 2.649,-9.417 3.85,-14.25 9.666,0.133 19.434,0.2 29.3,0.2 1.366,0 2.616,-0.4 3.75,-1.2 1.134,-0.8 1.934,-1.833 2.4,-3.1 1,-2.933 1.5,-5.75 1.5,-8.45 v -5.4 c 0,-1.733 -0.601,-3.216 -1.8,-4.45 -1.2,-1.267 -2.667,-1.95 -4.4,-2.05 -8.166,-0.4 -16.517,-0.767 -25.05,-1.1 0.566,-2.867 1.116,-5.833 1.649,-8.9 0.234,-1.466 -0.016,-2.866 -0.75,-4.2 -0.732,-1.333 -1.783,-2.284 -3.149,-2.85 -4.434,-1.867 -9.101,-3.1 -14,-3.7 -1.5,-0.2 -2.9,0.117 -4.2,0.95 -1.3,0.8 -2.2,1.917 -2.7,3.35 -1.733,4.833 -3.3,9.65 -4.7,14.45 C 92.566,22.55 77.95,22.184 63.25,21.95 Z m -27.8,79.6 V 97.7 c 4.833,0.733 10.133,1.3 15.9,1.7 -0.033,1.732 -0.05,3.449 -0.05,5.149 -5.533,-1.465 -10.817,-2.465 -15.85,-2.999 z m 13.15,28.9 c 0.8,0 1.566,-0.134 2.3,-0.4 -0.033,1.866 -0.066,3.717 -0.1,5.55 -4.8,-0.033 -9.917,-0.1 -15.35,-0.199 V 129.6 c 3.933,0.566 8.317,0.85 13.15,0.85 z"
       id="编组"
       inkscape:connector-curvature="0"
       style="fill:none;stroke:#000000;stroke-width:3;stroke-linecap:square;stroke-linejoin:round" /><path
       id="path6006"
       d="m 107.35,69.95 c -0.967,3.466 -1.449,7.333 -1.449,11.6 0.333,0.534 9.684,1.134 28.05,1.8 0.899,22.4 2.167,46 3.8,70.8 -3.834,0.967 -7.15,1.833 -9.95,2.6 0,3.467 0.967,6.467 2.9,9 8.033,-0.533 14.833,-1.8 20.399,-3.8 0,-30 -0.766,-60.267 -2.3,-90.8 -16.167,-0.8 -29.984,-1.2 -41.45,-1.2 m -8.2,30.75 c 0.399,-7.4 0.666,-14.85 0.8,-22.35 -0.9,-0.534 -2.95,-0.917 -6.15,-1.15 -2.533,0 -5,0.116 -7.399,0.35 -2.567,26.134 -4.333,54.134 -5.3,84 1.767,0.8 4.117,1.2 7.05,1.2 3.566,0 5.899,-0.267 7,-0.8 0.666,-7.5 1.25,-15.017 1.75,-22.55 6.133,1.166 12.616,1.75 19.449,1.75 0.667,-4.101 1,-7.851 1,-11.25 -6.533,-1.301 -13.083,-2.334 -19.649,-3.101 0.333,-4.433 0.634,-8.933 0.899,-13.5 6.5,1.233 13.566,1.851 21.2,1.851 0.767,-4.167 1.15,-7.9 1.15,-11.2 -7.366,-1.433 -14.634,-2.516 -21.8,-3.25 M 36.55,79.9 c -0.5,3.667 -0.75,7.417 -0.75,11.25 6.5,1.033 13.883,1.717 22.15,2.05 -0.267,17.833 -0.517,34.134 -0.75,48.899 -8.4,0 -17.817,-0.116 -28.25,-0.35 V 121.5 c 5.2,1.633 11.75,2.45 19.65,2.45 1.433,-3.833 2.15,-8.101 2.15,-12.8 -7.767,-2.134 -15.033,-3.334 -21.8,-3.601 v -25.2 c -1.767,-0.534 -3.917,-0.8 -6.45,-0.8 -2.467,0 -4.583,0.267 -6.35,0.8 -1.1,11.466 -1.65,22.667 -1.65,33.6 0.333,18.3 0.95,30.7 1.85,37.2 7.633,1.633 16.683,2.449 27.15,2.449 13.233,0 22.183,-0.55 26.85,-1.649 1.033,-13.101 1.55,-26.101 1.55,-39 0,-7.601 -0.25,-18.601 -0.75,-33 C 60.717,80.85 49.183,80.167 36.55,79.9 M 130.15,14 c -3.867,-1.633 -7.95,-2.717 -12.25,-3.25 -2.268,6.4 -4.25,12.717 -5.95,18.95 C 93.916,29.066 75.717,28.617 57.35,28.35 56.717,22.217 56.033,15.867 55.3,9.3 c -4.867,0 -9.517,0.434 -13.95,1.3 0.267,5.833 0.667,11.683 1.2,17.55 -11.333,-0.133 -22.667,-0.2 -34,-0.2 -0.133,1.9 -0.2,3.7 -0.2,5.4 0,1.867 0.2,3.95 0.6,6.25 11.433,0.5 23.117,0.95 35.05,1.35 0.767,7.366 1.733,14.683 2.9,21.95 4.434,0 8.833,-0.383 13.2,-1.15 -0.5,-6.633 -1.017,-13.434 -1.55,-20.4 16.667,0.633 33.333,1.083 50,1.35 -1.3,5.933 -2.433,11.7 -3.399,17.3 1.6,0.767 3.416,1.417 5.449,1.95 l 8.2,1.15 c 1.967,-6.5 3.75,-13.233 5.351,-20.2 11.333,0.2 22.8,0.3 34.399,0.3 0.767,-2.167 1.15,-4.25 1.15,-6.25 v -5.4 c -10.601,-0.5 -21.534,-0.983 -32.8,-1.45 1.233,-5 2.317,-10.367 3.25,-16.1 z"
       inkscape:connector-curvature="0"
       style="fill:#129822" /></g></svg>